HIERARCHY
ROOT Hips
{
 OFFSET 0.000000 0.000000 0.000000
 CHANNELS 6 Xposition Yposition Zposition Yrotation Xrotation Zrotation
 JOINT Chest
 {
  OFFSET 0.000000 10.354800 0.006500
  CHANNELS 3 Yrotation Xrotation Zrotation
  JOINT Chest2
  {
   OFFSET 0.000000 10.435800 -0.013200
   CHANNELS 3 Yrotation Xrotation Zrotation
   JOINT Chest3
   {
    OFFSET 0.000000 10.393700 0.000000
    CHANNELS 3 Yrotation Xrotation Zrotation
    JOINT Chest4
    {
     OFFSET 0.000000 10.383100 0.000000
     CHANNELS 3 Yrotation Xrotation Zrotation
     JOINT Neck
     {
      OFFSET 0.000000 15.694000 0.000000
      CHANNELS 3 Yrotation Xrotation Zrotation
      JOINT Head
      {
       OFFSET 0.000000 9.711000 -0.028000
       CHANNELS 3 Yrotation Xrotation Zrotation
       End Site
       {
        OFFSET 0.000000 18.578700 -0.014800
       }
      }
     }
     JOINT RightCollar
     {
      OFFSET -3.157200 10.367500 0.000000
      CHANNELS 3 Yrotation Xrotation Zrotation
      JOINT RightShoulder
      {
       OFFSET -14.482500 0.000000 0.000000
       CHANNELS 3 Yrotation Xrotation Zrotation
       JOINT RightElbow
       {
        OFFSET 0.000000 -31.707800 0.000000
        CHANNELS 3 Yrotation Xrotation Zrotation
        JOINT RightWrist
        {
         OFFSET 0.000000 -25.659300 0.000000
         CHANNELS 3 Yrotation Xrotation Zrotation
         End Site
         {
          OFFSET 0.000000 -18.994300 0.000000
         }
        }
       }
      }
     }
     JOINT LeftCollar
     {
      OFFSET 3.157200 10.367500 0.000000
      CHANNELS 3 Yrotation Xrotation Zrotation
      JOINT LeftShoulder
      {
       OFFSET 14.482500 0.000000 0.000000
       CHANNELS 3 Yrotation Xrotation Zrotation
       JOINT LeftElbow
       {
        OFFSET 0.000000 -31.707800 0.000000
        CHANNELS 3 Yrotation Xrotation Zrotation
        JOINT LeftWrist
        {
         OFFSET 0.000000 -25.659300 0.000000
         CHANNELS 3 Yrotation Xrotation Zrotation
         End Site
         {
          OFFSET 0.000000 -18.994300 0.000000
         }
        }
       }
      }
     }
    }
   }
  }
 }
 JOINT RightHip
 {
  OFFSET -8.365600 -0.032100 -0.003200
  CHANNELS 3 Yrotation Xrotation Zrotation
  JOINT RightKnee
  {
   OFFSET 0.000000 -43.980000 0.003100
   CHANNELS 3 Yrotation Xrotation Zrotation
   JOINT RightAnkle
   {
    OFFSET 0.000000 -42.882800 0.005200
    CHANNELS 3 Yrotation Xrotation Zrotation
    JOINT RightToe
    {
     OFFSET 0.000000 -4.915500 10.826300
     CHANNELS 3 Yrotation Xrotation Zrotation
     End Site
     {
      OFFSET 0.000000 -1.517500 6.175900
     }
    }
   }
  }
 }
 JOINT LeftHip
 {
  OFFSET 8.365600 -0.032100 -0.003200
  CHANNELS 3 Yrotation Xrotation Zrotation
  JOINT LeftKnee
  {
   OFFSET 0.000000 -43.980000 0.003100
   CHANNELS 3 Yrotation Xrotation Zrotation
   JOINT LeftAnkle
   {
    OFFSET 0.000000 -42.882800 0.005200
    CHANNELS 3 Yrotation Xrotation Zrotation
    JOINT LeftToe
    {
     OFFSET 0.000000 -4.915500 10.826300
     CHANNELS 3 Yrotation Xrotation Zrotation
     End Site
     {
      OFFSET 0.000000 -1.517500 6.175900
     }
    }
   }
  }
 }
}
MOTION
Frames: 5
Frame Time: 0.008333
-7.269382 127.227738 12.942483 179.490262 -34.550917 -1.474989 1.818766 24.261474 1.591120 0.229070 3.720908 0.189422 0.388615 5.979109 0.311468 1.444192 20.220735 1.258729 -3.167440 25.400995 -8.257987 -1.622771 2.258005 -8.403747 5.455744 5.403721 -3.117871 12.276760 -16.931481 -6.139257 22.453733 -3.749791 -9.506548 22.045751 -9.665664 -3.549521 -3.206747 11.253452 3.570647 -20.866047 -44.683871 5.985569 -43.748007 -32.331949 42.976907 -16.327760 9.694541 10.747879 3.624911 -43.129524 -1.977445 -155.128106 77.909211 -147.599645 2.568301 -24.167028 -1.446587 0.000351 -0.003809 0.000159 -6.267572 -41.874197 4.547881 147.643165 78.761218 143.150837 -2.778773 -23.305393 0.635870 -0.000035 0.002196 -0.000016
-7.269027 127.227810 12.941841 179.495829 -34.547675 -1.473060 1.825348 24.261970 1.591560 0.229920 3.720760 0.189226 0.388815 5.977810 0.311171 1.440810 20.220099 1.259510 -3.168155 25.386321 -8.274870 -1.629374 2.241541 -8.416046 5.511602 5.399327 -3.150895 12.238656 -16.913298 -6.107602 22.473931 -3.756877 -9.509034 22.027608 -9.668801 -3.556755 -3.202510 11.226790 3.558444 -20.872818 -44.650352 5.992580 -43.755641 -32.347990 42.974028 -16.321725 9.680915 10.737042 3.611609 -43.133615 -1.980711 -155.148569 77.908073 -147.627102 2.568885 -24.170544 -1.447488 -0.000949 -0.004345 -0.000431 -6.264335 -41.877777 4.537424 147.642076 78.764705 143.152541 -2.758764 -23.303274 0.629904 0.001988 0.002435 0.000903
-7.268158 127.227783 12.941225 179.499249 -34.542672 -1.471691 1.832877 24.260384 1.593466 0.230972 3.720269 0.189238 0.388007 5.976367 0.309445 1.450570 20.219450 1.263015 -3.179523 25.369685 -8.292675 -1.635087 2.223973 -8.430305 5.510156 5.395562 -3.155716 12.257552 -16.894225 -6.106496 22.480770 -3.760468 -9.513682 22.002022 -9.672845 -3.562264 -3.212510 11.204006 3.550818 -20.821155 -44.614998 5.971814 -43.801595 -32.382968 42.969422 -16.325381 9.684392 10.732005 3.603120 -43.138018 -1.981013 -155.148937 77.907268 -147.630602 2.569786 -24.174468 -1.450057 -0.000820 -0.003677 -0.000372 -6.268400 -41.883337 4.534039 147.647461 78.767480 143.158394 -2.765173 -23.300114 0.632431 0.000290 0.002094 0.000132
-7.266527 127.227789 12.940482 179.493412 -34.537329 -1.468300 1.844899 24.257717 1.594568 0.240594 3.722095 0.189248 0.377010 5.972189 0.311084 1.465822 20.218472 1.260569 -3.191332 25.361723 -8.294007 -1.639869 2.194055 -8.461198 5.496879 5.393586 -3.147800 12.272086 -16.885102 -6.108912 22.509631 -3.753486 -9.518633 21.976551 -9.680566 -3.565815 -3.224440 11.182401 3.549534 -20.786107 -44.585488 5.952494 -43.834797 -32.407716 42.968834 -16.331570 9.686359 10.725236 3.600831 -43.143526 -1.976695 -155.153468 77.907905 -147.637176 2.571427 -24.176286 -1.454203 -0.000909 -0.002816 -0.000413 -6.265810 -41.889099 4.534333 147.647985 78.768055 143.158862 -2.753003 -23.294891 0.629118 -0.000038 0.001531 -0.000017
-7.265184 127.227629 12.939768 179.491523 -34.530233 -1.464759 1.852099 24.254685 1.594970 0.241521 3.719574 0.189081 0.374051 5.971137 0.310492 1.487126 20.213871 1.252699 -3.206172 25.356868 -8.288549 -1.641169 2.159585 -8.494251 5.498886 5.389353 -3.147287 12.263143 -16.874100 -6.093263 22.550765 -3.743307 -9.528492 21.955758 -9.685011 -3.571316 -3.243700 11.165889 3.556424 -20.779161 -44.560583 5.949258 -43.843482 -32.425388 42.967265 -16.322978 9.676418 10.699151 3.600876 -43.151279 -1.977243 -155.182165 77.908713 -147.665392 2.567926 -24.178966 -1.457997 -0.001104 -0.002407 -0.000501 -6.264444 -41.897345 4.530636 147.621324 78.764483 143.134406 -2.732370 -23.288847 0.617732 0.002381 0.001483 0.001081
